<svg width="559" height="648" viewBox="0 0 559 648" fill="none" xmlns="http://www.w3.org/2000/svg">
<path d="M397 91.2C431.4 134.4 446.6 187.6 459.4 236C472.2 284 483 327.2 483 373.2C482.6 418.8 471.4 467.2 447.8 518.4C424.6 569.6 389 624 348.2 615.6C307.4 606.8 261.4 536 217.8 502.4C173.8 468.4 133 472 91.8001 457.6C51.0001 442.8 10.2001 409.6 18.6001 378C27.0001 346.4 84.6 316 116.2 284.4C147.4 253.2 152.6 220.8 171.4 170C189.8 119.2 221.4 50.4 264.6 32.4C307.4 14.8 362.2 48 397 91.2Z" fill="#5CAC0E"/>
</svg>
