<svg width="714" height="791" viewBox="0 0 714 791" fill="none" xmlns="http://www.w3.org/2000/svg">
<path d="M447.038 259.448C511.504 296.625 608.797 311.654 633.318 354.368C658.234 397.082 610.379 466.69 555.8 505.845C501.221 544.999 440.314 553.305 380.198 583.362C320.082 613.816 260.757 665.231 200.641 666.418C140.921 667.209 80.409 617.771 63.798 557.655C47.187 497.935 74.4765 427.536 87.1325 354.368C99.393 281.201 97.02 204.869 133.011 162.946C169.397 121.023 243.751 113.509 297.143 139.216C350.536 164.528 382.571 222.667 447.038 259.448Z" fill="url(#paint0_linear_61196_318)"/>
<defs>
<linearGradient id="paint0_linear_61196_318" x1="349.34" y1="124.365" x2="349.34" y2="666.427" gradientUnits="userSpaceOnUse">
<stop stop-color="#FF3F02"/>
<stop offset="1" stop-color="#FF6700"/>
</linearGradient>
</defs>
</svg>
