<svg width="665" height="607" viewBox="0 0 665 607" fill="none" xmlns="http://www.w3.org/2000/svg">
<path d="M446.038 162.448C510.504 199.625 607.797 214.654 632.318 257.368C657.234 300.082 609.379 369.69 554.8 408.845C500.221 447.999 439.314 456.305 379.198 486.362C319.082 516.816 259.757 568.231 199.641 569.418C139.921 570.209 79.409 520.771 62.798 460.655C46.187 400.935 73.4765 330.536 86.1325 257.368C98.393 184.201 96.02 107.869 132.011 65.946C168.397 24.023 242.751 16.5085 296.143 42.216C349.536 67.528 381.571 125.667 446.038 162.448Z" fill="url(#paint0_linear_61196_318)"/>
<defs>
<linearGradient id="paint0_linear_61196_318" x1="348.34" y1="27.3645" x2="348.34" y2="569.427" gradientUnits="userSpaceOnUse">
<stop stop-color="#FF3F02"/>
<stop offset="1" stop-color="#FF6700"/>
</linearGradient>
</defs>
</svg>
