<svg width="152" height="86" viewBox="0 0 152 86" fill="none" xmlns="http://www.w3.org/2000/svg">
<g clip-path="url(#clip0_61187_27)">
<path d="M66.088 53.8447C66.088 53.7558 65.9062 53.683 65.6838 53.683C65.4615 53.683 65.2796 53.6102 65.2796 53.5213C65.2796 53.4324 65.171 53.3596 65.0383 53.3596C64.9055 53.3596 64.6049 53.1959 64.3702 52.9958C63.1092 51.921 62.6313 51.3322 62.1183 50.2218C61.6229 49.1498 61.561 48.8651 61.5632 47.6706C61.565 46.2548 61.7313 45.5864 62.3287 44.5774C62.5288 44.2395 62.6925 43.929 62.6925 43.8872C62.6925 43.7732 64.1238 42.3647 64.2398 42.3647C64.2952 42.3647 64.5392 42.2231 64.7822 42.0501C65.5825 41.4802 66.5855 41.2377 68.1518 41.2352C68.9756 41.2339 69.7759 41.2968 69.9304 41.3747C70.0847 41.4528 70.479 41.6311 70.8064 41.771C71.1338 41.9109 71.5632 42.1563 71.7606 42.3163C72.5451 42.9521 73.6874 44.1886 73.6874 44.4021C73.6874 44.5264 73.7602 44.6282 73.8491 44.6282C73.9381 44.6282 74.0108 44.8101 74.0108 45.0325C74.0108 45.2548 74.0732 45.4367 74.1494 45.4367C74.2928 45.4367 74.5572 47.149 74.5239 47.862C74.4797 48.8065 74.291 49.8023 74.1562 49.8023C74.0763 49.8023 74.0108 49.9842 74.0108 50.2065C74.0108 50.4289 73.938 50.6108 73.8491 50.6108C73.7602 50.6108 73.6874 50.7288 73.6874 50.8733C73.6874 51.2012 71.7727 53.1166 71.2928 53.2689C71.098 53.3307 70.9387 53.4491 70.9387 53.5321C70.9387 53.6149 70.7204 53.683 70.4536 53.683C70.1868 53.683 69.9686 53.7557 69.9686 53.8447C69.9686 53.9435 69.214 54.0064 68.0283 54.0064C66.8426 54.0064 66.088 53.9435 66.088 53.8447ZM70.4065 52.2814C71.255 51.8077 72.2781 50.8187 72.6363 50.126C73.5661 48.3282 73.5661 46.911 72.6363 45.1132C72.3513 44.5619 71.1887 43.3348 70.9514 43.3348C70.8555 43.3348 70.7771 43.2621 70.7771 43.1731C70.7771 43.0842 70.6315 43.0114 70.4537 43.0114C70.2758 43.0114 70.1303 42.9469 70.1303 42.8681C70.1303 42.7236 69.6124 42.5849 68.4466 42.4169C67.7736 42.3199 66.088 42.6477 66.088 42.8756C66.088 42.9504 65.9425 43.0114 65.7647 43.0114C65.5868 43.0114 65.4413 43.0842 65.4413 43.1731C65.4413 43.262 65.3238 43.3348 65.1799 43.3348C64.869 43.3348 63.6627 44.5719 63.6627 44.8908C63.6627 45.0133 63.5899 45.1134 63.501 45.1134C63.4121 45.1134 63.3393 45.2529 63.3393 45.4233C63.3393 45.5938 63.2484 45.7635 63.1372 45.8006C62.9922 45.849 62.9351 46.362 62.9351 47.6196C62.9351 48.8772 62.9921 49.3902 63.1372 49.4386C63.2483 49.4756 63.3393 49.648 63.3393 49.8217C63.3393 49.9953 63.4863 50.2984 63.6661 50.4953C63.846 50.6923 64.1933 51.08 64.4382 51.357C64.9404 51.9251 66.0509 52.5464 66.8965 52.7323C67.9326 52.9602 69.5667 52.7507 70.4065 52.2814ZM66.7518 49.79C66.4499 49.6059 66.1225 49.3697 66.0242 49.2651C65.5764 48.7883 65.246 47.0537 65.603 47.0537C65.6919 47.0537 65.7647 46.8685 65.7647 46.6421C65.7647 46.1935 66.4138 45.4368 66.7988 45.4368C66.9309 45.4368 67.0841 45.364 67.139 45.2751C67.3675 44.9054 69.478 45.2331 69.4823 45.6389C69.4829 45.7056 69.5615 45.7601 69.6568 45.7601C69.9108 45.7601 70.292 46.1841 70.292 46.4666C70.292 46.6012 70.3648 46.7561 70.4537 46.8111C70.6402 46.9264 70.677 48.5088 70.4931 48.5088C70.4258 48.5088 70.2802 48.7138 70.1693 48.9644C69.707 50.0086 67.8474 50.4579 66.7518 49.79ZM68.9019 48.6286C69.2773 48.2532 69.3458 47.5573 69.0656 46.9666C68.8276 46.465 68.7325 46.4069 68.15 46.4069C66.9666 46.4069 66.3385 47.612 67.0987 48.424C67.5072 48.8603 68.5517 48.9788 68.9019 48.6286ZM81.1252 53.8447C81.1252 53.7558 81.0277 53.683 80.9086 53.683C80.4825 53.683 80.3167 52.8696 80.3167 50.7782C80.3167 49.6336 80.2726 48.582 80.2187 48.4413C80.136 48.226 79.7839 48.1855 77.994 48.1855H75.8675L75.8202 46.8516C75.7941 46.1179 75.7037 45.4934 75.6195 45.4637C75.5352 45.434 75.466 45.2815 75.466 45.1248C75.466 44.7904 75.0117 43.8322 74.7076 43.5254C74.5912 43.4079 74.4959 43.2491 74.4959 43.1725C74.4959 42.9638 72.7799 41.2329 72.5731 41.2329C72.4746 41.2329 72.394 41.1601 72.394 41.0712C72.394 40.9823 72.2849 40.9095 72.1514 40.9095C72.018 40.9095 71.9089 40.8367 71.9089 40.7478C71.9089 40.6589 71.7633 40.5861 71.5855 40.5861C71.4077 40.5861 71.2621 40.5133 71.2621 40.4244C71.2621 40.3355 71.0499 40.2627 70.7905 40.2627C70.5312 40.2627 70.2886 40.1717 70.2516 40.0606C70.157 39.7766 65.898 39.7819 65.8033 40.0661C65.7671 40.1742 65.6128 40.2627 65.4601 40.2627C65.1094 40.2627 64.3124 40.6271 64.3107 40.7882C64.3101 40.8549 64.2011 40.9093 64.0688 40.9093C63.7819 40.9093 63.3136 41.2631 62.5367 42.0666C61.5185 43.1196 61.2374 43.4802 61.2374 43.7331C61.2374 43.8697 61.1646 43.9814 61.0757 43.9814C60.9867 43.9814 60.914 44.1633 60.914 44.3857C60.914 44.608 60.8412 44.7899 60.7523 44.7899C60.6633 44.7899 60.5906 45.0082 60.5906 45.275C60.5906 45.5418 60.5178 45.76 60.4289 45.76C60.3354 45.76 60.2672 46.275 60.2672 46.9816V48.2031L59.4991 48.1538C59.0094 48.1224 58.7448 48.0342 58.7688 47.9105C58.7895 47.8038 58.8103 44.1144 58.815 39.7117C58.8242 31.3445 58.8242 31.3567 58.1248 30.7056C57.9692 30.5608 57.8419 30.3699 57.8419 30.2812C57.8419 30.0374 56.7224 29.3198 55.9016 29.0375C55.3561 28.8499 54.4761 28.7867 52.3848 28.7849L49.5957 28.7831V28.1363V27.4896H52.5061C54.3386 27.4896 55.4165 27.5495 55.4165 27.6513C55.4165 27.7402 55.7076 27.813 56.0633 27.813C56.419 27.813 56.71 27.8857 56.71 27.9747C56.71 28.0636 56.8375 28.1373 56.993 28.1386C57.386 28.1422 58.5761 29.1252 59.4236 30.1475C59.6905 30.4694 60.2672 31.8127 60.2672 32.1124C60.2672 32.3098 61.6994 32.3368 70.2516 32.3011L80.2359 32.2595L80.2775 22.2752L80.3192 12.2908H80.9647H81.6102V29.6818V47.0727L82.2974 47.023L82.9846 46.9734L83.0304 45.0393C83.0557 43.9755 83.1395 43.066 83.2166 43.0182C83.2938 42.9703 85.1104 42.9518 87.2534 42.9771L91.1499 43.0231V45.6045V48.186H86.38H81.6102V49.2369C81.6102 50.2448 81.6267 50.2879 82.0068 50.2879C82.7543 50.2879 83.5045 50.7296 83.8483 51.372C84.0719 51.7898 84.0992 53.0367 83.8848 53.0367C83.8019 53.0367 83.6878 53.1822 83.6314 53.36C83.5749 53.5379 83.4245 53.6834 83.2971 53.6834C83.1697 53.6834 83.0654 53.7562 83.0654 53.8451C83.0654 53.935 82.6343 54.0068 82.0953 54.0068C81.5563 54.0068 81.1252 53.9345 81.1252 53.8447ZM58.6907 11.0515C58.5549 10.9967 58.4886 10.5823 58.4886 9.78829V8.60663L59.1386 8.34655C59.4962 8.20355 59.8963 8.08646 60.0279 8.08646C60.1596 8.08646 60.2672 8.01368 60.2672 7.92476C60.2672 7.83584 60.4855 7.76306 60.7523 7.76306C61.0191 7.76306 61.2373 7.69028 61.2373 7.60136C61.2373 7.51244 61.4192 7.43966 61.6416 7.43966C61.8639 7.43966 62.0458 7.36688 62.0458 7.27796C62.0458 7.18904 62.2641 7.11626 62.5309 7.11626C62.7976 7.11626 63.0159 7.04348 63.0159 6.95456C63.0159 6.86564 63.2342 6.79286 63.501 6.79286C63.7678 6.79286 63.9861 6.72008 63.9861 6.63116C63.9861 6.54224 64.1637 6.46946 64.3808 6.46946C64.5978 6.46946 64.8204 6.39668 64.8754 6.30776C64.9304 6.21884 65.0983 6.14624 65.2487 6.14661C65.502 6.14705 67.2614 5.49343 67.9049 5.15987C68.0592 5.07976 68.3321 5.01431 68.5112 5.01431C68.6903 5.01431 68.8368 4.94152 68.8368 4.85261C68.8368 4.76369 69.055 4.69091 69.3218 4.69091C69.5886 4.69091 69.8069 4.61812 69.8069 4.52921C69.8069 4.44029 69.9846 4.36751 70.2016 4.36751C70.4187 4.36751 70.6412 4.29472 70.6962 4.20581C70.7512 4.11689 70.9737 4.04411 71.1908 4.04411C71.4079 4.04411 71.5855 3.97132 71.5855 3.88241C71.5855 3.79349 71.7113 3.72071 71.865 3.72071C72.15 3.72071 74.1867 3.01548 74.6958 2.74051C74.8502 2.6571 75.1231 2.5889 75.3022 2.5889C75.4813 2.5889 75.6277 2.51612 75.6277 2.4272C75.6277 2.33828 75.8096 2.2655 76.0319 2.2655C76.2543 2.2655 76.4362 2.19271 76.4362 2.1038C76.4362 2.01488 76.6545 1.9421 76.9212 1.9421C77.188 1.9421 77.4063 1.86931 77.4063 1.7804C77.4063 1.69148 77.6125 1.6187 77.8644 1.6187C78.1164 1.6187 78.3724 1.56883 78.4334 1.50796C78.8764 1.06494 81.1336 0.754813 81.2554 1.12023C81.2875 1.21648 81.526 1.29532 81.7854 1.29532C82.0448 1.29532 82.257 1.3681 82.257 1.45702C82.257 1.54593 82.4753 1.61872 82.7421 1.61872C83.0089 1.61872 83.2271 1.6915 83.2271 1.78042C83.2271 1.86933 83.4818 1.94212 83.7931 1.94212C84.1043 1.94212 84.359 2.0149 84.359 2.10382C84.359 2.19273 84.5366 2.26552 84.7537 2.26552C84.9707 2.26552 85.1933 2.3383 85.2483 2.42722C85.3033 2.51613 85.5197 2.58892 85.7294 2.58892C85.9391 2.58892 86.1349 2.64355 86.1645 2.7101C86.2289 2.85475 89.7289 4.04405 90.0903 4.04405C90.2285 4.04405 90.3415 4.11683 90.3415 4.20575C90.3415 4.29467 90.5598 4.36745 90.8266 4.36745C91.0933 4.36745 91.3116 4.44023 91.3116 4.52915C91.3116 4.61807 91.5299 4.69085 91.7967 4.69085C92.0635 4.69085 92.2818 4.76363 92.2818 4.85255C92.2818 4.94147 92.4958 5.01425 92.7573 5.01425C93.0188 5.01425 93.2724 5.07823 93.3208 5.1567C93.3692 5.23498 93.5736 5.33692 93.775 5.38308C93.9764 5.42928 94.5404 5.61987 95.0282 5.80662C95.5161 5.99336 96.0436 6.14613 96.2005 6.14613C96.3574 6.14613 96.4857 6.21892 96.4857 6.30783C96.4857 6.39675 96.704 6.46953 96.9708 6.46953C97.2376 6.46953 97.4559 6.54232 97.4559 6.63123C97.4559 6.72015 97.6741 6.79293 97.9409 6.79293C98.2077 6.79293 98.426 6.86572 98.426 6.95463C98.426 7.04355 98.6807 7.11633 98.9919 7.11633C99.3032 7.11633 99.5578 7.18912 99.5578 7.27803C99.5578 7.36695 99.7761 7.43973 100.043 7.43973C100.31 7.43973 100.528 7.51252 100.528 7.60143C100.528 7.69035 100.706 7.76313 100.923 7.76313C101.14 7.76313 101.357 7.82785 101.406 7.90687C101.455 7.98588 101.696 8.09759 101.941 8.15497C103.228 8.45582 103.277 8.51293 103.277 9.7173C103.277 10.6458 103.226 10.8508 102.964 10.9912C102.556 11.2095 98.1765 11.2095 97.7686 10.9912C97.5054 10.8504 97.4559 10.6456 97.4559 9.69768V8.57154H96.9708H96.4857V9.69768C96.4857 10.6456 96.4362 10.8503 96.173 10.9912C95.6972 11.2458 78.6645 11.2203 78.4088 10.9646C78.2955 10.8513 78.2148 10.3084 78.2148 9.66085V8.55112L77.6893 8.60172L77.1638 8.65232L77.1152 9.77967C77.0871 10.4294 76.9845 10.9593 76.8727 11.0303C76.5876 11.2114 65.8924 11.183 65.603 11.0004C65.4418 10.8987 65.3334 10.4794 65.2796 9.74979C65.2021 8.6958 65.1812 8.65028 64.7541 8.60115L64.3095 8.55V9.66663C64.3095 10.7063 64.2811 10.7962 63.8976 10.9709C63.4916 11.1559 59.1173 11.2237 58.6907 11.0515Z" fill="#263238"/>
</g>
<path d="M7.904 76.182C6.69067 76.182 5.59867 75.974 4.628 75.558C3.65733 75.1247 2.89467 74.518 2.34 73.738C1.78533 72.958 1.508 72.048 1.508 71.008H4.68C4.74933 71.788 5.05267 72.4293 5.59 72.932C6.14467 73.4347 6.916 73.686 7.904 73.686C8.92667 73.686 9.724 73.4433 10.296 72.958C10.868 72.4553 11.154 71.814 11.154 71.034C11.154 70.4273 10.972 69.9333 10.608 69.552C10.2613 69.1707 9.81933 68.876 9.282 68.668C8.762 68.46 8.034 68.2347 7.098 67.992C5.91933 67.68 4.95733 67.368 4.212 67.056C3.484 66.7267 2.86 66.224 2.34 65.548C1.82 64.872 1.56 63.9707 1.56 62.844C1.56 61.804 1.82 60.894 2.34 60.114C2.86 59.334 3.588 58.736 4.524 58.32C5.46 57.904 6.54333 57.696 7.774 57.696C9.52467 57.696 10.9547 58.138 12.064 59.022C13.1907 59.8887 13.8147 61.0847 13.936 62.61H10.66C10.608 61.9513 10.296 61.388 9.724 60.92C9.152 60.452 8.398 60.218 7.462 60.218C6.61267 60.218 5.91933 60.4347 5.382 60.868C4.84467 61.3013 4.576 61.9253 4.576 62.74C4.576 63.2947 4.74067 63.754 5.07 64.118C5.41667 64.4647 5.85 64.742 6.37 64.95C6.89 65.158 7.60067 65.3833 8.502 65.626C9.698 65.9553 10.6687 66.2847 11.414 66.614C12.1767 66.9433 12.818 67.4547 13.338 68.148C13.8753 68.824 14.144 69.734 14.144 70.878C14.144 71.7967 13.8927 72.6633 13.39 73.478C12.9047 74.2927 12.1853 74.9513 11.232 75.454C10.296 75.9393 9.18667 76.182 7.904 76.182ZM27.0274 76L22.8674 68.772H20.6054V76H17.6414V57.93H23.8814C25.2681 57.93 26.4381 58.1727 27.3914 58.658C28.3621 59.1433 29.0814 59.7933 29.5494 60.608C30.0347 61.4227 30.2774 62.3327 30.2774 63.338C30.2774 64.5167 29.9307 65.5913 29.2374 66.562C28.5614 67.5153 27.5127 68.1653 26.0914 68.512L30.5634 76H27.0274ZM20.6054 66.406H23.8814C24.9907 66.406 25.8227 66.1287 26.3774 65.574C26.9494 65.0193 27.2354 64.274 27.2354 63.338C27.2354 62.402 26.9581 61.674 26.4034 61.154C25.8487 60.6167 25.0081 60.348 23.8814 60.348H20.6054V66.406ZM35.2651 76.182C34.7278 76.182 34.2771 76 33.9131 75.636C33.5491 75.272 33.3671 74.8213 33.3671 74.284C33.3671 73.7467 33.5491 73.296 33.9131 72.932C34.2771 72.568 34.7278 72.386 35.2651 72.386C35.7851 72.386 36.2271 72.568 36.5911 72.932C36.9551 73.296 37.1371 73.7467 37.1371 74.284C37.1371 74.8213 36.9551 75.272 36.5911 75.636C36.2271 76 35.7851 76.182 35.2651 76.182ZM46.1065 66.926C46.1065 65.158 46.5139 63.572 47.3285 62.168C48.1605 60.764 49.2785 59.672 50.6825 58.892C52.1039 58.0947 53.6552 57.696 55.3365 57.696C57.2605 57.696 58.9679 58.1727 60.4585 59.126C61.9665 60.062 63.0585 61.3967 63.7345 63.13H60.1725C59.7045 62.1767 59.0545 61.466 58.2225 60.998C57.3905 60.53 56.4285 60.296 55.3365 60.296C54.1405 60.296 53.0745 60.5647 52.1385 61.102C51.2025 61.6393 50.4659 62.4107 49.9285 63.416C49.4085 64.4213 49.1485 65.5913 49.1485 66.926C49.1485 68.2607 49.4085 69.4307 49.9285 70.436C50.4659 71.4413 51.2025 72.2213 52.1385 72.776C53.0745 73.3133 54.1405 73.582 55.3365 73.582C56.4285 73.582 57.3905 73.348 58.2225 72.88C59.0545 72.412 59.7045 71.7013 60.1725 70.748H63.7345C63.0585 72.4813 61.9665 73.816 60.4585 74.752C58.9679 75.688 57.2605 76.156 55.3365 76.156C53.6379 76.156 52.0865 75.766 50.6825 74.986C49.2785 74.1887 48.1605 73.088 47.3285 71.684C46.5139 70.28 46.1065 68.694 46.1065 66.926ZM78.0979 72.308H70.5319L69.2319 76H66.1379L72.6119 57.904H76.0439L82.5179 76H79.3979L78.0979 72.308ZM77.2659 69.89L74.3279 61.492L71.3639 69.89H77.2659ZM104.365 57.93V76H101.401V63.624L95.8888 76H93.8348L88.2968 63.624V76H85.3328V57.93H88.5308L94.8748 72.1L101.193 57.93H104.365ZM111.225 60.322V65.626H117.465V68.044H111.225V73.582H118.245V76H108.261V57.904H118.245V60.322H111.225ZM124.859 73.608H130.969V76H121.895V57.93H124.859V73.608ZM141.69 76.182C140.009 76.182 138.457 75.792 137.036 75.012C135.632 74.2147 134.514 73.114 133.682 71.71C132.867 70.2887 132.46 68.694 132.46 66.926C132.46 65.158 132.867 63.572 133.682 62.168C134.514 60.764 135.632 59.672 137.036 58.892C138.457 58.0947 140.009 57.696 141.69 57.696C143.389 57.696 144.94 58.0947 146.344 58.892C147.765 59.672 148.883 60.764 149.698 62.168C150.513 63.572 150.92 65.158 150.92 66.926C150.92 68.694 150.513 70.2887 149.698 71.71C148.883 73.114 147.765 74.2147 146.344 75.012C144.94 75.792 143.389 76.182 141.69 76.182ZM141.69 73.608C142.886 73.608 143.952 73.3393 144.888 72.802C145.824 72.2473 146.552 71.4673 147.072 70.462C147.609 69.4393 147.878 68.2607 147.878 66.926C147.878 65.5913 147.609 64.4213 147.072 63.416C146.552 62.4107 145.824 61.6393 144.888 61.102C143.952 60.5647 142.886 60.296 141.69 60.296C140.494 60.296 139.428 60.5647 138.492 61.102C137.556 61.6393 136.819 62.4107 136.282 63.416C135.762 64.4213 135.502 65.5913 135.502 66.926C135.502 68.2607 135.762 69.4393 136.282 70.462C136.819 71.4673 137.556 72.2473 138.492 72.802C139.428 73.3393 140.494 73.608 141.69 73.608ZM141.69 54.654L137.972 56.89V54.576L141.69 52.418L145.408 54.576V56.89L141.69 54.654Z" fill="#333333"/>
<defs>
<clipPath id="clip0_61187_27">
<rect width="55" height="55" fill="white" transform="translate(49)"/>
</clipPath>
</defs>
</svg>
